<?xml version="1.0" encoding="UTF-8"?><!DOCTYPE svg PUBLIC "-//W3C//DTD SVG 1.1//EN" "http://www.w3.org/Graphics/SVG/1.1/DTD/svg11.dtd"><svg xmlns="http://www.w3.org/2000/svg" xmlns:xlink="http://www.w3.org/1999/xlink" height="527" viewBox="0 0 280 527" width="280"><svg height="49.4" viewBox="-167 397 260 50" width="259.7" x="10" y="10"><path fill="#585B5D" d="M-153.1,439.1h8v-10h-13.8L-153.1,439.1z M-161.2,425.1h16.1v-10H-167L-161.2,425.1z M57.9,430.1v9h21 l5.8-10H66.3C62.9,429.9,59.7,430.1,57.9,430.1z M78.9,415.1c-0.5,4.6-2.3,7.8-4.7,10H87l5.8-10H78.9z"/><g fill="#585B5D"><path d="M-107.6,423.6v-16.7h-0.1l-0.5,3.8l-7,34.4h-8.3l-7-34.4l-0.5-3.8h-0.1v16.7l-9.5-6.2v-20.9h14.8l6.4,36.4 l6.5-36.4h14.8v20.8L-107.6,423.6z M-131.1,445.1h-9.5v-24.8l9.5,6.2V445.1z"/><path d="M-98.1,445.1h-9.5v-18.6l9.5-6.2V445.1z"/><path d="M-75.2,419.1c0-6.1-2.6-9.6-5.9-11.1c0.5-0.1,1.5-0.1,2.3-0.1c8.6,0,13.8,3,13.7,12.9l-0.1,12.5 c0,4.6-0.1,8.4,0.5,11.7h-9.2l-0.3-4.7c-1.6,3.8-4.7,5.5-9.1,5.5c-5.8,0-9.7-3.6-9.7-10.1V435c0-5.9,4.2-8.3,12.5-11.5l3.1-1.2 l0.1,5.4l-0.9,0.3c-3.6,1.4-4.7,2.9-4.7,5.8v0.9c0,2.7,0.8,4.8,3.4,4.8c3.1,0,4.4-2.4,4.4-8.6L-75.2,419.1z"/><path d="M-79.2,414.2c-3.1,0-4.1,2-4.1,5.7v0.6h-9.1v-0.6c0-5.2,3-9.4,8.3-11.2c2.8,0.9,5.1,3.1,5.6,5.5H-79.2z"/><path d="M-38.5,425.5l9,19.6h-9.8l-5.2-11.3L-38.5,425.5z"/><path d="M-49.2,436.2v8.8h-10.3v-48.5h10.3v26.7l10-14.2h9.4L-49.2,436.2z"/><path d="M-13.8,414.3c-3.6,0-4.8,2.2-4.8,7.5v0.6h9.5v-0.9c0-6.5-2.3-11.5-6.4-13.6c0.5-0.1,0.9-0.1,1.4-0.1 c10.9,0,14.4,5.8,14.4,18.1v1.9h-19v4c0,7.9,2.5,11.9,6.3,13.9c-0.5,0.1-1.2,0.1-2,0.1c-10,0-14.5-5.8-14.5-16.1v-6 c0-8.8,3.5-14,10-15.4c2.5,0.8,5.2,3.1,6,5.9h-0.9V414.3z M-0.1,433.2v-0.3h-9.6v0.3c0,4.8-1.7,6.1-4.4,6.1H-15 c0.5,2.9,3.4,5.3,5.6,6.1C-4.8,444.3-0.1,441.1-0.1,433.2z"/><path d="M5.2,425.9v-29.4h10.7v29.4c0,8.6-0.3,12.6,5.4,12.6H22c-0.8,3.3-3.6,5.6-6.8,7 C6.9,444.2,5.2,439,5.2,425.9z"/><path d="M26.1,427.7v-31.2h10.7v28.9c0,16-2.3,20.5-15.8,20.5c-0.8,0-1.5,0-2.2-0.1 C22.6,443.9,26.2,439.6,26.1,427.7z"/><path d="M52.4,396.5h4.8c10.5,0,17.5,2.1,17.5,14.5c0,12.4-7,14.9-17.5,14.9H54v19.2H43.3v-48.6h6.1l4.6,7.1v15.1 h1.8c6,0,7.5-1,7.5-7.5s-1.7-7.4-6.4-7.6L52.4,396.5z"/></g></svg><svg height="50.3" viewBox="0 0 156 51" width="155.7" x="10" y="70"><path fill="#6CBF57" d="M8.1,33.5l5.8,10h9.8c-1-2.7-1.5-6.1-1.7-10H8.1z M23.1,19.5H0l5.8,10h25.4C26.2,27.3,23.9,23.5,23.1,19.5 z M127.9,36.5c0,1.1,0.1,3,6,3c0,2.3,0,4,0,4h8l5.8-10h-19.8V36.5z M133.9,19.5v4h-6c0,0,0,2.9,0,6h22.1l5.8-10H133.9z"/><path fill="#6CBF57" d="M1.9,40.5"/><path fill="#6CBF57" d="M62.3,20.4V0.9h10.3v26.2L62.3,20.4z M77.4,28.5c0-10.7,4.7-16.2,14.7-16.2c0.5,0,1.4,0,2.1,0.1	c-4.2,2.5-6.4,6.6-6.4,16.1v4.4c0,6.9,0.3,10.8,4.4,10.8h0.3c-0.5,2.6-3.2,5-5.6,6c-6.3-1.6-9.6-6.7-9.6-15.6V28.5z M108.8,19.8	v-6.4h4.3V3.7h10.3v9.8h6.1v6.4H108.8z M123.5,38.8c0,3.7,0.9,4.4,3.5,4.4h2.6v6.4h-7.4c-7.1,0-9-2.5-9-9.7V22.1h10.3V38.8z M47.5,0.7c5.1,1.3,9.6,4.6,9.6,13.9v0.3H46.7v-0.3c0-5.7-1.9-7.6-5.6-7.6h-0.7C41.5,4,44.3,1.7,47.5,0.7z"/><path fill="#6CBF57" d="M62.3 49.5L72.6 49.5 72.6 30 62.3 23.3z"/><path fill="#6CBF57" d="M36.3,49.6c2.9-1.1,5.8-3.3,7.2-6.5h-1.1c-4.2,0-5.8-2.3-5.8-9.1v-0.5H26V34C26,42.5,29.2,47.7,36.3,49.6z"/><path fill="#6CBF57" d="M58.1,35.6c0-8.9-5.7-11.9-13-15.1l-4.7-2.1c-2.7-1.2-3.7-2.9-3.7-5.9C36.8,5.9,40,1.9,44,0.1	C43.1,0.1,42.2,0,41.2,0c-8.8,0-14.7,4-14.7,12.8c0,8.2,3.8,11.5,11.4,14.9l4.2,1.9c3.5,1.6,5.6,3.6,5.6,7.3	c0,7.2-4.1,11.3-7.8,13.3c0.9,0.1,1.5,0.1,2.5,0.1C52.2,50.3,58.1,45.4,58.1,35.6z"/><path fill="#6CBF57" d="M97.3,12.9c-2.4,1-5.2,3.4-5.7,6H92c4.1,0,4.4,3.9,4.4,10.8v4.4c0,9.6-2.2,13.7-6.4,16.1	c0.7,0.1,1.6,0.1,2.1,0.1c10.1,0,14.7-5.6,14.7-16.2v-5.6C106.9,19.6,103.6,14.5,97.3,12.9z"/></svg><svg height="50.3" viewBox="-219 396 156 51" width="155.7" x="10" y="131"><path fill="#585B5D" d="M-210.9,429.1l5.8,10h9.8c-1-2.7-1.5-6.1-1.7-10H-210.9z M-195.9,415.1H-219l5.8,10h25.4 C-192.8,422.9-195.1,419.1-195.9,415.1z M-91.1,432.1c0,1.1,0.1,3,6,3c0,2.3,0,4,0,4h8l5.8-10h-19.8 C-91.1,429.1-91.1,432.1-91.1,432.1z M-85.1,415.1v4h-6c0,0,0,2.9,0,6H-69l5.8-10H-85.1z"/><path fill="#585B5D" d="M-217.1,436.1"/><path fill="#585B5D" d="M-156.7,416v-19.5h10.3v26.2L-156.7,416z M-141.6,424.1c0-10.7,4.7-16.2,14.7-16.2c0.5,0,1.4,0,2.1,0.1	c-4.2,2.5-6.4,6.6-6.4,16.1v4.4c0,6.9,0.3,10.8,4.4,10.8h0.3c-0.5,2.6-3.2,5-5.6,6c-6.3-1.6-9.6-6.7-9.6-15.6L-141.6,424.1	L-141.6,424.1z M-110.2,415.4V409h4.3v-9.7h10.3v9.8h6.1v6.4h-20.7V415.4z M-95.5,434.4c0,3.7,0.9,4.4,3.5,4.4h2.6v6.4h-7.4	c-7.1,0-9-2.5-9-9.7v-17.8h10.3C-95.5,417.7-95.5,434.4-95.5,434.4z M-171.5,396.3c5.1,1.3,9.6,4.6,9.6,13.9v0.3h-10.4v-0.3	c0-5.7-1.9-7.6-5.6-7.6h-0.7C-177.5,399.6-174.7,397.3-171.5,396.3z"/><path fill="#585B5D" d="M-156.7 445.1L-146.4 445.1 -146.4 425.6 -156.7 418.9z"/><path fill="#585B5D" d="M-182.7,445.2c2.9-1.1,5.8-3.3,7.2-6.5h-1.1c-4.2,0-5.8-2.3-5.8-9.1v-0.5H-193v0.5	C-193,438.1-189.8,443.3-182.7,445.2z"/><path fill="#585B5D" d="M-160.9,431.2c0-8.9-5.7-11.9-13-15.1l-4.7-2.1c-2.7-1.2-3.7-2.9-3.7-5.9c0.1-6.6,3.3-10.6,7.3-12.4	c-0.9,0-1.8-0.1-2.8-0.1c-8.8,0-14.7,4-14.7,12.8c0,8.2,3.8,11.5,11.4,14.9l4.2,1.9c3.5,1.6,5.6,3.6,5.6,7.3	c0,7.2-4.1,11.3-7.8,13.3c0.9,0.1,1.5,0.1,2.5,0.1C-166.8,445.9-160.9,441-160.9,431.2z"/><path fill="#585B5D" d="M-121.7,408.5c-2.4,1-5.2,3.4-5.7,6h0.4c4.1,0,4.4,3.9,4.4,10.8v4.4c0,9.6-2.2,13.7-6.4,16.1	c0.7,0.1,1.6,0.1,2.1,0.1c10.1,0,14.7-5.6,14.7-16.2v-5.6C-112.1,415.2-115.4,410.1-121.7,408.5z"/></svg><svg height="65.5" viewBox="0 0 154 66" width="154" x="10" y="192"><path fill="#898989" d="M98.5,24.6h7.7c0.3-5-1.6-14.6-13.9-14.6c-9,0-15.5,5.4-15.5,16.6c0,1.5,0.1,9.4,0.1,14.3	c0,12.2,8.4,14.8,16.4,14.8c3.4,0,8.8-0.6,12.4-4.7V32.3H91.7v7.4H98v8C93.3,49.2,85,49.8,85,39c0-5.7,0-6.8,0-12.4	c0-7,2.8-9.6,6.6-9.6C95.7,17,98.5,19,98.5,24.6z"/><path fill="#898989" d="M120.7,55.1h-7.8V10.6h7.8V55.1z M120.7,55.1h-7.8V10.6h7.8V55.1z"/><path fill="#898989" d="M154,43.4c0-17.4-19.7-11.6-19.7-21.3c0-2.9,1.9-5.2,5.3-5.2c4.1,0,6.6,2.6,6.1,7.8h7.6	c0.6-5.1-1.3-14.6-13.4-14.6c-7.5,0-13.6,3.7-13.6,11.8c0,16.8,19.7,11.3,19.5,21.5c-0.1,3.7-2.8,5.5-6.2,5.5	c-3.7,0-6.7-2.3-6.2-8.7h-7.6c-0.6,9.1,3.4,15.6,14.1,15.6C149,55.7,154,50.8,154,43.4z"/><path fill="#898989" d="M59.7,14.2c1.5,2.3,2.3,5,2.3,8.1c0,11.8-12,20.9-19,26.9h18c2.8-4.8,4.4-10.5,4.4-16.5 C65.5,25.8,63.3,19.5,59.7,14.2z M29.7,51.4c14.1-12.2,22.7-20.5,22.7-28.5c0-3-1.1-6.7-6.2-6.7c-4,0-7.9,2.3-7.2,12.1h-8.2 C28.7,17,34.8,8,46.6,8c5.9,0,10.4,2.3,13,6C53.7,5.6,43.9,0,32.7,0C14.7,0,0,14.7,0,32.7c0,18.1,14.7,32.7,32.7,32.7 c7.8,0,14.9-2.7,20.5-7.2H29.8L29.7,51.4z"/></svg><svg height="39.1" viewBox="0 0 55 40" width="54.3" x="10" y="268"><path fill="#2E3336" d="M33.6,25.1v-5.6l-3.2-0.6c-0.3-1.4-0.9-2.7-1.6-3.9l1.9-2.7l-3.9-3.9L24,10.3c-1.2-0.7-2.5-1.3-3.9-1.6	l-0.6-3.2H14l-0.6,3.2c-1.4,0.3-2.7,0.9-3.9,1.6L6.9,8.5l-3.9,3.9l1.9,2.7c-0.7,1.2-1.3,2.5-1.6,3.9L0,19.5v5.6l3.2,0.6	c0.3,1.4,0.9,2.7,1.6,3.9l-1.9,2.7l3.9,3.9l2.7-1.9c1.2,0.7,2.5,1.3,3.9,1.6l0.6,3.2h5.6l0.6-3.2c1.4-0.3,2.7-0.9,3.9-1.6l2.7,1.9	l3.9-3.9l-1.9-2.7c0.7-1.2,1.3-2.5,1.6-3.9L33.6,25.1z M16.8,31c-4.8,0-8.7-3.9-8.7-8.7c0-4.8,3.9-8.7,8.7-8.7s8.7,3.9,8.7,8.7	C25.5,27.1,21.6,31,16.8,31z"/><path fill="#2E3336" d="M52.4,12.7c0.1-1,0.1-1.9,0-2.9l1.9-1.2l-1.5-3.5l-2.2,0.5c-0.6-0.8-1.3-1.4-2-2l0.4-2.2L45.4,0l-1.2,1.9	c-1-0.1-1.9-0.1-2.9,0l-1.2-1.9l-3.5,1.5l0.5,2.2c-0.8,0.6-1.4,1.3-2,2L33,5.3l-1.4,3.5l1.9,1.2c-0.1,1-0.1,1.9,0,2.9l-1.9,1.2	l1.5,3.5l2.2-0.5c0.6,0.8,1.3,1.4,2,2l-0.4,2.2l3.5,1.4l1.2-1.9c1,0.1,1.9,0.1,2.9,0l1.2,1.9l3.5-1.5L48.7,19c0.8-0.6,1.4-1.3,2-2	l2.2,0.4l1.4-3.5L52.4,12.7z M48.6,13.6c-1.2,3.1-4.8,4.7-7.9,3.4c-3.1-1.2-4.7-4.8-3.4-7.9s4.8-4.7,7.9-3.4S49.9,10.5,48.6,13.6z"/></svg><svg height="51" viewBox="0 0 53 51" width="53" x="10" y="318"><path fill="#282828" d="M44.2,25.3l8.8-4.1l-8.8-4.1l-17.7,8.2l8.8,4.1L44.2,25.3z M26.5,25.3l-8.8-4.1l-8.8-4.1L0,21.2l17.7,8.2 L26.5,25.3z M44,29l-4,1.9c-0.1,0.1-0.2,0.2-0.2,0.4l0,7.6l-13.3,6.9l-13.3-6.9v-3.2l0.1-4.3c0-0.2-0.1-0.3-0.2-0.4L9,29 c-0.1-0.1-0.3,0-0.4,0c-0.1,0.1-0.2,0.2-0.2,0.3v12.1c0,0.1,0.1,0.3,0.2,0.4L26.3,51c0.1,0,0.1,0,0.2,0c0.1,0,0.1,0,0.2,0 l17.7-9.2c0.1-0.1,0.2-0.2,0.2-0.4V29.3c0-0.1-0.1-0.3-0.2-0.3C44.3,28.9,44.1,28.9,44,29z M17.6,9.9c2.5,2.5,2.7,3.3,2.7,4.7 l0,1.8l3.7,0l0.1-1.8c0-2.7-0.9-4.4-3.8-7.4c-2.3-2.3-2.9-5.1-3-5.7l0-1.5l-3.8,0l0,1.7l0,0.3C13.5,2.1,14.2,6.4,17.6,9.9z M28.7,9.9c2.5,2.5,2.7,3.3,2.7,4.7l0,1.8l3.8,0l0-1.8c0-2.7-0.9-4.4-3.8-7.4c-2.3-2.3-2.9-5.1-3-5.7l0-1.5l-3.8,0l0,1.7l0,0.3 C24.6,2.1,25.2,6.4,28.7,9.9z"/></svg><svg height="27.9" viewBox="0 0 52 28" width="51.4" x="10" y="379"><path fill="#282828" d="M27.6,6.9h-3.2v6.5h3.2V6.9z M7.7,27.8H14v-3.2H7.7V27.8z M25.7,0C11.8,0,0,12,0,26.2v1.6h4.8v-1.6 c0-0.7,0-1.5,0.1-2.3l0.2-1.5c0.4-1.9,1-3.8,1.8-5.5l0.8-1.4c1-1.7,2.2-3.2,3.6-4.6l1.2-1.1c1.5-1.3,3.2-2.3,4.9-3.1l1.5-0.6 c1.8-0.7,3.8-1.1,5.6-1.2L26,5c2,0,4.1,0.4,5.9,1l1.5,0.6c1.8,0.8,3.6,1.8,5.1,3l1.2,1c1.5,1.4,2.8,2.9,3.8,4.6l0.8,1.4 c0.9,1.8,1.6,3.7,2,5.6l0.2,1.5c0.1,0.8,0.2,1.7,0.2,2.5v1.6h4.8v-1.6C51.4,12,39.7,0,25.7,0z M14.3,12.5L12,14.8l4.5,4.6l2.2-2.3 L14.3,12.5z M39.2,14.8L37,12.5l-4.5,4.6l2.2,2.3L39.2,14.8z M25.9,20.1c-4.1,0-7.4,3.4-7.4,7.5c0,0.1,0,0.2,0,0.3h14.7 c0,0,0,0,0,0h10V25H32.9C31.9,22.1,29.1,20.1,25.9,20.1z"/></svg><svg height="48" viewBox="0 0 48 48" width="48" x="10" y="417"><g fill="#6CBF57"><path d="M47.9,44.5l-3-5c-0.1-0.2-0.3-0.4-0.5-0.4l-2.8-0.9l-9.6-9.6l1.8-1.8c0.4-0.4,0.4-1,0-1.4l-2-2 C31.5,23.1,31.3,23,31,23h-0.6l6.9-6.9c0.3,0,0.6,0.1,0.9,0.1h0c2.5,0,5.1-1.3,6.9-3.4c1.7-2,2.4-4.5,1.9-6.9 c-0.1-0.3-0.3-0.6-0.5-0.7l-2-1C44.2,4,43.9,4,43.7,4.1c-0.3,0.1-0.5,0.3-0.6,0.5c0,0-1.1,2.2-1.5,3c-0.2,0.4-0.9,0.9-1.9,0.9 c-0.4,0-0.9-0.1-1.3-0.3c-1.4-0.7-1.1-2.5-1-2.7l1.5-3c0.2-0.5,0-1.1-0.4-1.3l-2-1c-0.3-0.1-0.6-0.1-0.8,0 c-2.6,1.1-4.8,4.1-5.5,7.3c-0.4,1.8-0.2,3.4,0.5,4.5L24,18.6c-1.1-1.4-2.2-3.1-3.2-4.9c-1.5-2.5-3-5.2-5.1-7.3 c-3-3-6.2-5.8-9.4-5.8c-1.5,0-2.8,0.6-4,1.8c-4.7,4.7,1.2,10.6,4,13.4c2.1,2.1,4.6,3.5,7.1,5c1.9,1.1,3.7,2.1,5.1,3.4l-9.2,9.2 C8.7,33.1,8.1,33,7.5,33C3.4,33,0,36.4,0,40.5S3.4,48,7.5,48s7.5-3.4,7.5-7.5c0-0.6-0.1-1.2-0.2-1.8l8.2-8.2V31 c0,0.3,0.1,0.5,0.3,0.7l2,2c0.2,0.2,0.5,0.3,0.7,0.3s0.5-0.1,0.7-0.3l1.8-1.8l9.6,9.6l0.9,2.8c0.1,0.2,0.2,0.4,0.4,0.5l5,3 C44.6,48,44.8,48,45,48c0.3,0,0.5-0.1,0.7-0.3l2-2C48,45.4,48.1,44.9,47.9,44.5z M14.4,18.9c-2.4-1.4-4.8-2.8-6.7-4.7 c-1.6-1.6-3.6-3.8-4.6-5.8C2.2,6.5,2.4,5,3.7,3.7c0.8-0.8,1.6-1.2,2.6-1.2c2.5,0,5.4,2.6,8,5.2c2,2,3.4,4.5,4.8,6.9 c1.1,2,2.2,3.9,3.5,5.4L20,22.6C18.4,21.2,16.4,20.1,14.4,18.9z M12.7,38.7c0.2,0.6,0.3,1.2,0.3,1.8c0,3-2.5,5.5-5.5,5.5 S2,43.5,2,40.5S4.5,35,7.5,35c0.6,0,1.2,0.1,1.8,0.3c0.4,0.1,0.8,0,1-0.2l10.4-10.4l4-4l8-8c0.2-0.2,0.3-0.4,0.3-0.7 s-0.1-0.5-0.3-0.7c-0.7-0.7-0.9-2-0.6-3.5c0.5-2.4,2.1-4.7,3.9-5.7l0.7,0.3l-1.1,2.1c-0.3,0.6-0.4,1.9,0,3.1c0.3,1,1,1.8,2,2.3 c0.7,0.3,1.4,0.5,2.2,0.5c1.6,0,3-0.8,3.7-1.9c0.3-0.5,0.7-1.4,1.1-2.1l0.6,0.3c0.2,1.7-0.4,3.4-1.6,4.8c-1.4,1.6-3.5,2.7-5.3,2.7 h0c-0.3,0-0.7,0-1-0.1c-0.3-0.1-0.7,0-0.9,0.3l-9,9l-4,4L12.9,37.7C12.7,37.9,12.6,38.3,12.7,38.7z M27.8,29.8L26,31.6l-1-1v-2.2 l3.4-3.4h2.2l1,1l-1.8,1.8L27.8,29.8z M39,39.6l-9.1-9.1l0.6-0.6l9.1,9.1L39,39.6z M44.8,45.7l-4-2.4l-0.7-2.1l1.1-1.1l2.1,0.7 l2.4,4L44.8,45.7z"/><path d="M7.5,36C5,36,3,38,3,40.5S5,45,7.5,45s4.5-2,4.5-4.5S10,36,7.5,36z M7.5,43C6.1,43,5,41.9,5,40.5 S6.1,38,7.5,38s2.5,1.1,2.5,2.5S8.9,43,7.5,43z"/></g></svg><svg height="41.4" viewBox="0 0 42 42" width="41.2" x="10" y="475"><path fill="#282828" d="M8.5,12.6c2.5,0,5.3-0.8,5.3-2.4V7.4c0-0.1,0-0.2,0-0.3c0-0.2-0.1-0.3-0.2-0.5c-0.1-0.1-0.1-0.2-0.2-0.2 c-0.1-0.1-0.1-0.1-0.2-0.2c0,0,0,0-0.1-0.1c0,0-0.1-0.1-0.1-0.1c0,0-0.1,0-0.1-0.1c0,0-0.1,0-0.1-0.1c0,0-0.1,0-0.1-0.1 c0,0-0.1,0-0.1-0.1c0,0-0.1,0-0.2-0.1c0,0-0.1,0-0.1,0c-0.1,0-0.1-0.1-0.2-0.1c0,0,0,0-0.1,0c-0.1,0-0.1-0.1-0.2-0.1c0,0,0,0,0,0 c-0.1,0-0.2-0.1-0.2-0.1C11,5.3,10.5,5.2,9.9,5.1c-0.2,0-0.5,0-0.7-0.1c0,0,0,0,0,0C9,5.1,8.7,5,8.5,5h0C6.3,5,3.9,5.7,3.3,6.9 C3.3,7,3.2,7.2,3.2,7.4v2.9C3.2,11.8,5.9,12.6,8.5,12.6z M20.7,18.6c2.5,0,5.3-0.8,5.3-2.4v-2.9c0-0.1,0-0.2,0-0.3 c0-0.2-0.1-0.3-0.2-0.5c-0.1-0.1-0.1-0.2-0.2-0.2c-0.1-0.1-0.1-0.1-0.2-0.2c0,0,0,0-0.1-0.1c0,0-0.1-0.1-0.1-0.1 c0,0-0.1,0-0.1-0.1c0,0-0.1,0-0.1-0.1c0,0-0.1,0-0.1-0.1c0,0-0.1,0-0.1-0.1c0,0-0.1,0-0.2-0.1c0,0-0.1,0-0.1,0 c-0.1,0-0.1-0.1-0.2-0.1c0,0,0,0-0.1,0c-0.1,0-0.1-0.1-0.2-0.1c0,0,0,0,0,0c-0.1,0-0.2-0.1-0.2-0.1c-0.5-0.1-1.1-0.3-1.6-0.3 c-0.2,0-0.5,0-0.7-0.1c0,0,0,0,0,0c-0.2,0-0.5,0-0.7,0h0c-2.2,0-4.6,0.6-5.1,1.8c-0.1,0.2-0.1,0.3-0.1,0.5v2.9 C15.4,17.8,18.1,18.6,20.7,18.6z M32.9,12.6c2.5,0,5.3-0.8,5.3-2.4V7.4c0-0.1,0-0.2,0-0.3c0-0.2-0.1-0.3-0.2-0.5 c-0.1-0.1-0.1-0.2-0.2-0.2c-0.1-0.1-0.1-0.1-0.2-0.2c0,0,0,0-0.1-0.1c0,0-0.1-0.1-0.1-0.1c0,0-0.1,0-0.1-0.1c0,0-0.1,0-0.1-0.1 c0,0-0.1,0-0.1-0.1c0,0-0.1,0-0.1-0.1c0,0-0.1,0-0.2-0.1c0,0-0.1,0-0.1,0c-0.1,0-0.1-0.1-0.2-0.1c0,0,0,0-0.1,0 c-0.1,0-0.1-0.1-0.2-0.1c0,0,0,0,0,0c-0.1,0-0.2-0.1-0.2-0.1c-0.5-0.1-1.1-0.3-1.6-0.3c-0.2,0-0.5,0-0.7-0.1c0,0,0,0,0,0 c-0.2,0-0.5,0-0.7,0h0c-2.2,0-4.6,0.6-5.1,1.8c-0.1,0.2-0.1,0.3-0.1,0.5v2.9C27.6,11.8,30.3,12.6,32.9,12.6z M20.7,7.6 c2.5,0,5.3-0.8,5.3-2.4V2.4c0-0.1,0-0.2,0-0.3c0-0.2-0.1-0.3-0.2-0.5c-0.1-0.1-0.1-0.2-0.2-0.2c-0.1-0.1-0.1-0.1-0.2-0.2 c0,0,0,0-0.1-0.1c0,0-0.1-0.1-0.1-0.1C25.1,1,25,1,25,1c0,0-0.1,0-0.1-0.1c0,0-0.1,0-0.1-0.1c0,0-0.1,0-0.1-0.1c0,0-0.1,0-0.2-0.1 c0,0-0.1,0-0.1,0c-0.1,0-0.1-0.1-0.2-0.1c0,0,0,0-0.1,0c-0.1,0-0.1-0.1-0.2-0.1c0,0,0,0,0,0c-0.1,0-0.2-0.1-0.2-0.1 c-0.5-0.1-1.1-0.3-1.6-0.3c-0.2,0-0.5,0-0.7-0.1c0,0,0,0,0,0c-0.2,0-0.5,0-0.7,0h0c-2.2,0-4.6,0.6-5.1,1.8 c-0.1,0.2-0.1,0.3-0.1,0.5v2.9C15.4,6.8,18.1,7.6,20.7,7.6z M20.6,22L0,11.8v18.9l20.6,10.8l20.6-10.8V11.8L20.6,22z M37.4,27.4 l-16.7,8.8l0-9.2l16.8-8.7V27.4z"/></svg></svg>