<svg xmlns="http://www.w3.org/2000/svg" width="53" height="51" viewBox="0 0 53 51"><path fill="#282828" d="M44.2,25.3l8.8-4.1l-8.8-4.1l-17.7,8.2l8.8,4.1L44.2,25.3z M26.5,25.3l-8.8-4.1l-8.8-4.1L0,21.2l17.7,8.2 L26.5,25.3z M44,29l-4,1.9c-0.1,0.1-0.2,0.2-0.2,0.4l0,7.6l-13.3,6.9l-13.3-6.9v-3.2l0.1-4.3c0-0.2-0.1-0.3-0.2-0.4L9,29 c-0.1-0.1-0.3,0-0.4,0c-0.1,0.1-0.2,0.2-0.2,0.3v12.1c0,0.1,0.1,0.3,0.2,0.4L26.3,51c0.1,0,0.1,0,0.2,0c0.1,0,0.1,0,0.2,0 l17.7-9.2c0.1-0.1,0.2-0.2,0.2-0.4V29.3c0-0.1-0.1-0.3-0.2-0.3C44.3,28.9,44.1,28.9,44,29z M17.6,9.9c2.5,2.5,2.7,3.3,2.7,4.7 l0,1.8l3.7,0l0.1-1.8c0-2.7-0.9-4.4-3.8-7.4c-2.3-2.3-2.9-5.1-3-5.7l0-1.5l-3.8,0l0,1.7l0,0.3C13.5,2.1,14.2,6.4,17.6,9.9z M28.7,9.9c2.5,2.5,2.7,3.3,2.7,4.7l0,1.8l3.8,0l0-1.8c0-2.7-0.9-4.4-3.8-7.4c-2.3-2.3-2.9-5.1-3-5.7l0-1.5l-3.8,0l0,1.7l0,0.3 C24.6,2.1,25.2,6.4,28.7,9.9z"/></svg>