<svg xmlns="http://www.w3.org/2000/svg" width="47.1" height="44.6" viewBox="0 0 47.1 44.6"><path fill="#282828" d="M47,19.4c-0.2-1.3-0.8-2.8-1.7-3.9c-0.5-0.6-1.2-1.4-1.8-1.9c-0.9-0.7-1.8-1.3-2.8-1.6c0-0.1,0-0.3,0-0.5 c0-0.8,0-1.3-0.2-2c-0.4-1.8-1.2-3.6-2.4-5.1c-0.9-1.1-2-2.1-3.2-2.7c-1.2-0.7-3.2-1.5-4.4-1.6C29.9,0,29.1,0,28.7,0 c-0.3,0-0.7,0-1.1,0c-0.5,0-1.1,0.1-1.5,0.1c-1.3,0.2-3,0.9-4.4,1.8c-0.8,0.5-1.4,1-2.1,1.6C19.2,4,18.8,4.4,18.4,5 c-1.7-0.5-3.7-0.6-5.4-0.2C11.5,5.1,9.9,5.9,8.6,7C8.5,7.1,8.5,7.1,8.5,7.1C8.1,7.3,7.4,8.2,7.4,8.2c-0.3,0.4-0.7,1-1,1.4 c-0.5,0.9-0.9,2-1,3c-1,0.5-1.7,1-2.6,1.8c-0.8,0.8-1.3,1.5-1.8,2.3c-1,1.8-1.3,3.9-0.9,5.9c0.4,1.8,1.2,3.4,2.6,4.8 c1.5,1.4,2.6,2.1,4.6,2.6c1,0.2,1.7,0.7,4,0.7h6v-4c0,0-5.1-0.1-8,0c-0.4,0-1.6-0.7-2-1c-0.9-0.7-0.6-0.6-1.5-1.4 c-0.7-0.7-1.2-1.5-1.4-2.4c-0.2-1.1-0.1-2.1,0.4-3.1c0.3-0.6,0.9-1.3,1.6-1.8c0.3-0.2,0.5-0.4,0.9-0.5c0.8-0.4,1.5-0.7,1.9-1.6 c0.2-0.4,0.3-0.8,0.3-1.3c0-0.2,0.1-0.8,0.4-1.4c0.1-0.3,0.3-0.7,0.5-0.9c0.5-0.7,1.4-1.5,2.3-1.9c0.8-0.4,1.4-0.5,2.2-0.5l0.2,0 c0.4,0,0.7,0,1.1,0.1c0.5,0.1,0.8,0.2,1.4,0.5c0.5,0.2,0.9,0.4,1.4,0.4c0.2,0,0.4,0,0.6-0.1c0.9-0.2,1.2-0.8,1.6-1.5 c0.4-0.6,0.5-0.7,0.6-1c0.8-1.1,2.2-2.1,3.6-2.6c0.7-0.3,1-0.3,1.8-0.4l0.5,0c0.1,0,0.2,0,0.3,0c0.6,0,1.5,0,1.5,0 c0.3,0,0.7,0.2,1.4,0.4c0.7,0.3,1.3,0.6,1.7,0.8c1.7,1.1,3,3,3.3,5c0.1,0.6,0.1,1.1,0,1.9c0,0.3-0.1,0.8-0.1,0.9 c0,0.4,0,0.7,0.2,1.1c0.2,0.4,0.4,0.6,0.6,0.8c0.4,0.4,0.7,0.4,1.5,0.6c0.6,0.2,0.8,0.2,1.2,0.4c0.9,0.4,1.7,1.1,2.3,1.9 c0.4,0.5,0.7,1.3,0.8,2c0,0.1,0,0.2,0,0.5c0,1.4-0.5,2.7-1.5,3.6c-0.5,0.5-0.9,1.1-1.8,1.4c-0.9,0.3-1.5,0.9-5,1c-0.4,0-2.2,0-4,0 h-2v4h2c2.6,0,4.6,0,5,0c2-0.1,2.5-0.4,3.4-0.6c0.9-0.1,1.6-0.3,2.5-0.7c1.3-0.6,2.1-1.1,3-1.9c1-0.9,1.6-1.9,2.1-3.2 C47,22.8,47.3,20.9,47,19.4z M30,34.5l-5.6,5.3v-22h-3v22l-5.1-4.6c-0.7-0.6-1.7-0.4-2.2,0.2c-0.5,0.7-0.4,1.7,0.2,2.2l8.1,6.6 c0.3,0.2,0.6,0.4,1,0.4c0.4,0,0.8-0.1,1.1-0.4l7.7-7.4c0.6-0.6,0.7-1.6,0.1-2.3C31.6,33.9,30.6,33.9,30,34.5z"/></svg>