<svg xmlns="http://www.w3.org/2000/svg" width="54.3" height="39.1" viewBox="0 0 54.3 39.1"><path fill="#2E3336" d="M33.6,25.1v-5.6l-3.2-0.6c-0.3-1.4-0.9-2.7-1.6-3.9l1.9-2.7l-3.9-3.9L24,10.3c-1.2-0.7-2.5-1.3-3.9-1.6	l-0.6-3.2H14l-0.6,3.2c-1.4,0.3-2.7,0.9-3.9,1.6L6.9,8.5l-3.9,3.9l1.9,2.7c-0.7,1.2-1.3,2.5-1.6,3.9L0,19.5v5.6l3.2,0.6	c0.3,1.4,0.9,2.7,1.6,3.9l-1.9,2.7l3.9,3.9l2.7-1.9c1.2,0.7,2.5,1.3,3.9,1.6l0.6,3.2h5.6l0.6-3.2c1.4-0.3,2.7-0.9,3.9-1.6l2.7,1.9	l3.9-3.9l-1.9-2.7c0.7-1.2,1.3-2.5,1.6-3.9L33.6,25.1z M16.8,31c-4.8,0-8.7-3.9-8.7-8.7c0-4.8,3.9-8.7,8.7-8.7s8.7,3.9,8.7,8.7	C25.5,27.1,21.6,31,16.8,31z"/><path fill="#2E3336" d="M52.4,12.7c0.1-1,0.1-1.9,0-2.9l1.9-1.2l-1.5-3.5l-2.2,0.5c-0.6-0.8-1.3-1.4-2-2l0.4-2.2L45.4,0l-1.2,1.9	c-1-0.1-1.9-0.1-2.9,0l-1.2-1.9l-3.5,1.5l0.5,2.2c-0.8,0.6-1.4,1.3-2,2L33,5.3l-1.4,3.5l1.9,1.2c-0.1,1-0.1,1.9,0,2.9l-1.9,1.2	l1.5,3.5l2.2-0.5c0.6,0.8,1.3,1.4,2,2l-0.4,2.2l3.5,1.4l1.2-1.9c1,0.1,1.9,0.1,2.9,0l1.2,1.9l3.5-1.5L48.7,19c0.8-0.6,1.4-1.3,2-2	l2.2,0.4l1.4-3.5L52.4,12.7z M48.6,13.6c-1.2,3.1-4.8,4.7-7.9,3.4c-3.1-1.2-4.7-4.8-3.4-7.9s4.8-4.7,7.9-3.4S49.9,10.5,48.6,13.6z"/></svg>