<svg xmlns="http://www.w3.org/2000/svg" width="259.7" height="49.4" viewBox="-167 396.5 259.7 49.4" enable-background="new -167 396.5 259.7 49.4"><path fill="#585B5D" d="M-153.1,439.1h8v-10h-13.8L-153.1,439.1z M-161.2,425.1h16.1v-10H-167L-161.2,425.1z M57.9,430.1v9h21 l5.8-10H66.3C62.9,429.9,59.7,430.1,57.9,430.1z M78.9,415.1c-0.5,4.6-2.3,7.8-4.7,10H87l5.8-10H78.9z"/><g fill="#585B5D"><path d="M-107.6,423.6v-16.7h-0.1l-0.5,3.8l-7,34.4h-8.3l-7-34.4l-0.5-3.8h-0.1v16.7l-9.5-6.2v-20.9h14.8l6.4,36.4 l6.5-36.4h14.8v20.8L-107.6,423.6z M-131.1,445.1h-9.5v-24.8l9.5,6.2V445.1z"/><path d="M-98.1,445.1h-9.5v-18.6l9.5-6.2V445.1z"/><path d="M-75.2,419.1c0-6.1-2.6-9.6-5.9-11.1c0.5-0.1,1.5-0.1,2.3-0.1c8.6,0,13.8,3,13.7,12.9l-0.1,12.5 c0,4.6-0.1,8.4,0.5,11.7h-9.2l-0.3-4.7c-1.6,3.8-4.7,5.5-9.1,5.5c-5.8,0-9.7-3.6-9.7-10.1V435c0-5.9,4.2-8.3,12.5-11.5l3.1-1.2 l0.1,5.4l-0.9,0.3c-3.6,1.4-4.7,2.9-4.7,5.8v0.9c0,2.7,0.8,4.8,3.4,4.8c3.1,0,4.4-2.4,4.4-8.6L-75.2,419.1z"/><path d="M-79.2,414.2c-3.1,0-4.1,2-4.1,5.7v0.6h-9.1v-0.6c0-5.2,3-9.4,8.3-11.2c2.8,0.9,5.1,3.1,5.6,5.5H-79.2z"/><path d="M-38.5,425.5l9,19.6h-9.8l-5.2-11.3L-38.5,425.5z"/><path d="M-49.2,436.2v8.8h-10.3v-48.5h10.3v26.7l10-14.2h9.4L-49.2,436.2z"/><path d="M-13.8,414.3c-3.6,0-4.8,2.2-4.8,7.5v0.6h9.5v-0.9c0-6.5-2.3-11.5-6.4-13.6c0.5-0.1,0.9-0.1,1.4-0.1 c10.9,0,14.4,5.8,14.4,18.1v1.9h-19v4c0,7.9,2.5,11.9,6.3,13.9c-0.5,0.1-1.2,0.1-2,0.1c-10,0-14.5-5.8-14.5-16.1v-6 c0-8.8,3.5-14,10-15.4c2.5,0.8,5.2,3.1,6,5.9h-0.9V414.3z M-0.1,433.2v-0.3h-9.6v0.3c0,4.8-1.7,6.1-4.4,6.1H-15 c0.5,2.9,3.4,5.3,5.6,6.1C-4.8,444.3-0.1,441.1-0.1,433.2z"/><path d="M5.2,425.9v-29.4h10.7v29.4c0,8.6-0.3,12.6,5.4,12.6H22c-0.8,3.3-3.6,5.6-6.8,7 C6.9,444.2,5.2,439,5.2,425.9z"/><path d="M26.1,427.7v-31.2h10.7v28.9c0,16-2.3,20.5-15.8,20.5c-0.8,0-1.5,0-2.2-0.1 C22.6,443.9,26.2,439.6,26.1,427.7z"/><path d="M52.4,396.5h4.8c10.5,0,17.5,2.1,17.5,14.5c0,12.4-7,14.9-17.5,14.9H54v19.2H43.3v-48.6h6.1l4.6,7.1v15.1 h1.8c6,0,7.5-1,7.5-7.5s-1.7-7.4-6.4-7.6L52.4,396.5z"/></g></svg>