<svg xmlns="http://www.w3.org/2000/svg" width="41.2" height="41.4" viewBox="0 0 41.2 41.4"><path fill="#282828" d="M8.5,12.6c2.5,0,5.3-0.8,5.3-2.4V7.4c0-0.1,0-0.2,0-0.3c0-0.2-0.1-0.3-0.2-0.5c-0.1-0.1-0.1-0.2-0.2-0.2 c-0.1-0.1-0.1-0.1-0.2-0.2c0,0,0,0-0.1-0.1c0,0-0.1-0.1-0.1-0.1c0,0-0.1,0-0.1-0.1c0,0-0.1,0-0.1-0.1c0,0-0.1,0-0.1-0.1 c0,0-0.1,0-0.1-0.1c0,0-0.1,0-0.2-0.1c0,0-0.1,0-0.1,0c-0.1,0-0.1-0.1-0.2-0.1c0,0,0,0-0.1,0c-0.1,0-0.1-0.1-0.2-0.1c0,0,0,0,0,0 c-0.1,0-0.2-0.1-0.2-0.1C11,5.3,10.5,5.2,9.9,5.1c-0.2,0-0.5,0-0.7-0.1c0,0,0,0,0,0C9,5.1,8.7,5,8.5,5h0C6.3,5,3.9,5.7,3.3,6.9 C3.3,7,3.2,7.2,3.2,7.4v2.9C3.2,11.8,5.9,12.6,8.5,12.6z M20.7,18.6c2.5,0,5.3-0.8,5.3-2.4v-2.9c0-0.1,0-0.2,0-0.3 c0-0.2-0.1-0.3-0.2-0.5c-0.1-0.1-0.1-0.2-0.2-0.2c-0.1-0.1-0.1-0.1-0.2-0.2c0,0,0,0-0.1-0.1c0,0-0.1-0.1-0.1-0.1 c0,0-0.1,0-0.1-0.1c0,0-0.1,0-0.1-0.1c0,0-0.1,0-0.1-0.1c0,0-0.1,0-0.1-0.1c0,0-0.1,0-0.2-0.1c0,0-0.1,0-0.1,0 c-0.1,0-0.1-0.1-0.2-0.1c0,0,0,0-0.1,0c-0.1,0-0.1-0.1-0.2-0.1c0,0,0,0,0,0c-0.1,0-0.2-0.1-0.2-0.1c-0.5-0.1-1.1-0.3-1.6-0.3 c-0.2,0-0.5,0-0.7-0.1c0,0,0,0,0,0c-0.2,0-0.5,0-0.7,0h0c-2.2,0-4.6,0.6-5.1,1.8c-0.1,0.2-0.1,0.3-0.1,0.5v2.9 C15.4,17.8,18.1,18.6,20.7,18.6z M32.9,12.6c2.5,0,5.3-0.8,5.3-2.4V7.4c0-0.1,0-0.2,0-0.3c0-0.2-0.1-0.3-0.2-0.5 c-0.1-0.1-0.1-0.2-0.2-0.2c-0.1-0.1-0.1-0.1-0.2-0.2c0,0,0,0-0.1-0.1c0,0-0.1-0.1-0.1-0.1c0,0-0.1,0-0.1-0.1c0,0-0.1,0-0.1-0.1 c0,0-0.1,0-0.1-0.1c0,0-0.1,0-0.1-0.1c0,0-0.1,0-0.2-0.1c0,0-0.1,0-0.1,0c-0.1,0-0.1-0.1-0.2-0.1c0,0,0,0-0.1,0 c-0.1,0-0.1-0.1-0.2-0.1c0,0,0,0,0,0c-0.1,0-0.2-0.1-0.2-0.1c-0.5-0.1-1.1-0.3-1.6-0.3c-0.2,0-0.5,0-0.7-0.1c0,0,0,0,0,0 c-0.2,0-0.5,0-0.7,0h0c-2.2,0-4.6,0.6-5.1,1.8c-0.1,0.2-0.1,0.3-0.1,0.5v2.9C27.6,11.8,30.3,12.6,32.9,12.6z M20.7,7.6 c2.5,0,5.3-0.8,5.3-2.4V2.4c0-0.1,0-0.2,0-0.3c0-0.2-0.1-0.3-0.2-0.5c-0.1-0.1-0.1-0.2-0.2-0.2c-0.1-0.1-0.1-0.1-0.2-0.2 c0,0,0,0-0.1-0.1c0,0-0.1-0.1-0.1-0.1C25.1,1,25,1,25,1c0,0-0.1,0-0.1-0.1c0,0-0.1,0-0.1-0.1c0,0-0.1,0-0.1-0.1c0,0-0.1,0-0.2-0.1 c0,0-0.1,0-0.1,0c-0.1,0-0.1-0.1-0.2-0.1c0,0,0,0-0.1,0c-0.1,0-0.1-0.1-0.2-0.1c0,0,0,0,0,0c-0.1,0-0.2-0.1-0.2-0.1 c-0.5-0.1-1.1-0.3-1.6-0.3c-0.2,0-0.5,0-0.7-0.1c0,0,0,0,0,0c-0.2,0-0.5,0-0.7,0h0c-2.2,0-4.6,0.6-5.1,1.8 c-0.1,0.2-0.1,0.3-0.1,0.5v2.9C15.4,6.8,18.1,7.6,20.7,7.6z M20.6,22L0,11.8v18.9l20.6,10.8l20.6-10.8V11.8L20.6,22z M37.4,27.4 l-16.7,8.8l0-9.2l16.8-8.7V27.4z"/></svg>