<svg xmlns="http://www.w3.org/2000/svg" width="51.4" height="27.9" viewBox="0 0 51.4 27.9"><path fill="#282828" d="M27.6,6.9h-3.2v6.5h3.2V6.9z M7.7,27.8H14v-3.2H7.7V27.8z M25.7,0C11.8,0,0,12,0,26.2v1.6h4.8v-1.6 c0-0.7,0-1.5,0.1-2.3l0.2-1.5c0.4-1.9,1-3.8,1.8-5.5l0.8-1.4c1-1.7,2.2-3.2,3.6-4.6l1.2-1.1c1.5-1.3,3.2-2.3,4.9-3.1l1.5-0.6 c1.8-0.7,3.8-1.1,5.6-1.2L26,5c2,0,4.1,0.4,5.9,1l1.5,0.6c1.8,0.8,3.6,1.8,5.1,3l1.2,1c1.5,1.4,2.8,2.9,3.8,4.6l0.8,1.4 c0.9,1.8,1.6,3.7,2,5.6l0.2,1.5c0.1,0.8,0.2,1.7,0.2,2.5v1.6h4.8v-1.6C51.4,12,39.7,0,25.7,0z M14.3,12.5L12,14.8l4.5,4.6l2.2-2.3 L14.3,12.5z M39.2,14.8L37,12.5l-4.5,4.6l2.2,2.3L39.2,14.8z M25.9,20.1c-4.1,0-7.4,3.4-7.4,7.5c0,0.1,0,0.2,0,0.3h14.7 c0,0,0,0,0,0h10V25H32.9C31.9,22.1,29.1,20.1,25.9,20.1z"/></svg>