<svg xmlns="http://www.w3.org/2000/svg" width="155.7" height="50.3" viewBox="-219 395.6 155.7 50.3" enable-background="new -219 395.6 155.7 50.3"><path fill="#585B5D" d="M-210.9,429.1l5.8,10h9.8c-1-2.7-1.5-6.1-1.7-10H-210.9z M-195.9,415.1H-219l5.8,10h25.4 C-192.8,422.9-195.1,419.1-195.9,415.1z M-91.1,432.1c0,1.1,0.1,3,6,3c0,2.3,0,4,0,4h8l5.8-10h-19.8 C-91.1,429.1-91.1,432.1-91.1,432.1z M-85.1,415.1v4h-6c0,0,0,2.9,0,6H-69l5.8-10H-85.1z"/><path fill="#585B5D" d="M-217.1,436.1"/><path fill="#585B5D" d="M-156.7,416v-19.5h10.3v26.2L-156.7,416z M-141.6,424.1c0-10.7,4.7-16.2,14.7-16.2c0.5,0,1.4,0,2.1,0.1	c-4.2,2.5-6.4,6.6-6.4,16.1v4.4c0,6.9,0.3,10.8,4.4,10.8h0.3c-0.5,2.6-3.2,5-5.6,6c-6.3-1.6-9.6-6.7-9.6-15.6L-141.6,424.1	L-141.6,424.1z M-110.2,415.4V409h4.3v-9.7h10.3v9.8h6.1v6.4h-20.7V415.4z M-95.5,434.4c0,3.7,0.9,4.4,3.5,4.4h2.6v6.4h-7.4	c-7.1,0-9-2.5-9-9.7v-17.8h10.3C-95.5,417.7-95.5,434.4-95.5,434.4z M-171.5,396.3c5.1,1.3,9.6,4.6,9.6,13.9v0.3h-10.4v-0.3	c0-5.7-1.9-7.6-5.6-7.6h-0.7C-177.5,399.6-174.7,397.3-171.5,396.3z"/><path fill="#585B5D" d="M-156.7 445.1L-146.4 445.1 -146.4 425.6 -156.7 418.9z"/><path fill="#585B5D" d="M-182.7,445.2c2.9-1.1,5.8-3.3,7.2-6.5h-1.1c-4.2,0-5.8-2.3-5.8-9.1v-0.5H-193v0.5	C-193,438.1-189.8,443.3-182.7,445.2z"/><path fill="#585B5D" d="M-160.9,431.2c0-8.9-5.7-11.9-13-15.1l-4.7-2.1c-2.7-1.2-3.7-2.9-3.7-5.9c0.1-6.6,3.3-10.6,7.3-12.4	c-0.9,0-1.8-0.1-2.8-0.1c-8.8,0-14.7,4-14.7,12.8c0,8.2,3.8,11.5,11.4,14.9l4.2,1.9c3.5,1.6,5.6,3.6,5.6,7.3	c0,7.2-4.1,11.3-7.8,13.3c0.9,0.1,1.5,0.1,2.5,0.1C-166.8,445.9-160.9,441-160.9,431.2z"/><path fill="#585B5D" d="M-121.7,408.5c-2.4,1-5.2,3.4-5.7,6h0.4c4.1,0,4.4,3.9,4.4,10.8v4.4c0,9.6-2.2,13.7-6.4,16.1	c0.7,0.1,1.6,0.1,2.1,0.1c10.1,0,14.7-5.6,14.7-16.2v-5.6C-112.1,415.2-115.4,410.1-121.7,408.5z"/></svg>