<svg xmlns="http://www.w3.org/2000/svg" width="155.7" height="50.3" viewBox="0 0 155.7 50.3"><path fill="#6CBF57" d="M8.1,33.5l5.8,10h9.8c-1-2.7-1.5-6.1-1.7-10H8.1z M23.1,19.5H0l5.8,10h25.4C26.2,27.3,23.9,23.5,23.1,19.5 z M127.9,36.5c0,1.1,0.1,3,6,3c0,2.3,0,4,0,4h8l5.8-10h-19.8V36.5z M133.9,19.5v4h-6c0,0,0,2.9,0,6h22.1l5.8-10H133.9z"/><path fill="#6CBF57" d="M1.9,40.5"/><path fill="#6CBF57" d="M62.3,20.4V0.9h10.3v26.2L62.3,20.4z M77.4,28.5c0-10.7,4.7-16.2,14.7-16.2c0.5,0,1.4,0,2.1,0.1	c-4.2,2.5-6.4,6.6-6.4,16.1v4.4c0,6.9,0.3,10.8,4.4,10.8h0.3c-0.5,2.6-3.2,5-5.6,6c-6.3-1.6-9.6-6.7-9.6-15.6V28.5z M108.8,19.8	v-6.4h4.3V3.7h10.3v9.8h6.1v6.4H108.8z M123.5,38.8c0,3.7,0.9,4.4,3.5,4.4h2.6v6.4h-7.4c-7.1,0-9-2.5-9-9.7V22.1h10.3V38.8z M47.5,0.7c5.1,1.3,9.6,4.6,9.6,13.9v0.3H46.7v-0.3c0-5.7-1.9-7.6-5.6-7.6h-0.7C41.5,4,44.3,1.7,47.5,0.7z"/><path fill="#6CBF57" d="M62.3 49.5L72.6 49.5 72.6 30 62.3 23.3z"/><path fill="#6CBF57" d="M36.3,49.6c2.9-1.1,5.8-3.3,7.2-6.5h-1.1c-4.2,0-5.8-2.3-5.8-9.1v-0.5H26V34C26,42.5,29.2,47.7,36.3,49.6z"/><path fill="#6CBF57" d="M58.1,35.6c0-8.9-5.7-11.9-13-15.1l-4.7-2.1c-2.7-1.2-3.7-2.9-3.7-5.9C36.8,5.9,40,1.9,44,0.1	C43.1,0.1,42.2,0,41.2,0c-8.8,0-14.7,4-14.7,12.8c0,8.2,3.8,11.5,11.4,14.9l4.2,1.9c3.5,1.6,5.6,3.6,5.6,7.3	c0,7.2-4.1,11.3-7.8,13.3c0.9,0.1,1.5,0.1,2.5,0.1C52.2,50.3,58.1,45.4,58.1,35.6z"/><path fill="#6CBF57" d="M97.3,12.9c-2.4,1-5.2,3.4-5.7,6H92c4.1,0,4.4,3.9,4.4,10.8v4.4c0,9.6-2.2,13.7-6.4,16.1	c0.7,0.1,1.6,0.1,2.1,0.1c10.1,0,14.7-5.6,14.7-16.2v-5.6C106.9,19.6,103.6,14.5,97.3,12.9z"/></svg>