<svg xmlns="http://www.w3.org/2000/svg" width="48" height="48" viewBox="0 0 48 48"><g fill="#6CBF57"><path d="M47.9,44.5l-3-5c-0.1-0.2-0.3-0.4-0.5-0.4l-2.8-0.9l-9.6-9.6l1.8-1.8c0.4-0.4,0.4-1,0-1.4l-2-2 C31.5,23.1,31.3,23,31,23h-0.6l6.9-6.9c0.3,0,0.6,0.1,0.9,0.1h0c2.5,0,5.1-1.3,6.9-3.4c1.7-2,2.4-4.5,1.9-6.9 c-0.1-0.3-0.3-0.6-0.5-0.7l-2-1C44.2,4,43.9,4,43.7,4.1c-0.3,0.1-0.5,0.3-0.6,0.5c0,0-1.1,2.2-1.5,3c-0.2,0.4-0.9,0.9-1.9,0.9 c-0.4,0-0.9-0.1-1.3-0.3c-1.4-0.7-1.1-2.5-1-2.7l1.5-3c0.2-0.5,0-1.1-0.4-1.3l-2-1c-0.3-0.1-0.6-0.1-0.8,0 c-2.6,1.1-4.8,4.1-5.5,7.3c-0.4,1.8-0.2,3.4,0.5,4.5L24,18.6c-1.1-1.4-2.2-3.1-3.2-4.9c-1.5-2.5-3-5.2-5.1-7.3 c-3-3-6.2-5.8-9.4-5.8c-1.5,0-2.8,0.6-4,1.8c-4.7,4.7,1.2,10.6,4,13.4c2.1,2.1,4.6,3.5,7.1,5c1.9,1.1,3.7,2.1,5.1,3.4l-9.2,9.2 C8.7,33.1,8.1,33,7.5,33C3.4,33,0,36.4,0,40.5S3.4,48,7.5,48s7.5-3.4,7.5-7.5c0-0.6-0.1-1.2-0.2-1.8l8.2-8.2V31 c0,0.3,0.1,0.5,0.3,0.7l2,2c0.2,0.2,0.5,0.3,0.7,0.3s0.5-0.1,0.7-0.3l1.8-1.8l9.6,9.6l0.9,2.8c0.1,0.2,0.2,0.4,0.4,0.5l5,3 C44.6,48,44.8,48,45,48c0.3,0,0.5-0.1,0.7-0.3l2-2C48,45.4,48.1,44.9,47.9,44.5z M14.4,18.9c-2.4-1.4-4.8-2.8-6.7-4.7 c-1.6-1.6-3.6-3.8-4.6-5.8C2.2,6.5,2.4,5,3.7,3.7c0.8-0.8,1.6-1.2,2.6-1.2c2.5,0,5.4,2.6,8,5.2c2,2,3.4,4.5,4.8,6.9 c1.1,2,2.2,3.9,3.5,5.4L20,22.6C18.4,21.2,16.4,20.1,14.4,18.9z M12.7,38.7c0.2,0.6,0.3,1.2,0.3,1.8c0,3-2.5,5.5-5.5,5.5 S2,43.5,2,40.5S4.5,35,7.5,35c0.6,0,1.2,0.1,1.8,0.3c0.4,0.1,0.8,0,1-0.2l10.4-10.4l4-4l8-8c0.2-0.2,0.3-0.4,0.3-0.7 s-0.1-0.5-0.3-0.7c-0.7-0.7-0.9-2-0.6-3.5c0.5-2.4,2.1-4.7,3.9-5.7l0.7,0.3l-1.1,2.1c-0.3,0.6-0.4,1.9,0,3.1c0.3,1,1,1.8,2,2.3 c0.7,0.3,1.4,0.5,2.2,0.5c1.6,0,3-0.8,3.7-1.9c0.3-0.5,0.7-1.4,1.1-2.1l0.6,0.3c0.2,1.7-0.4,3.4-1.6,4.8c-1.4,1.6-3.5,2.7-5.3,2.7 h0c-0.3,0-0.7,0-1-0.1c-0.3-0.1-0.7,0-0.9,0.3l-9,9l-4,4L12.9,37.7C12.7,37.9,12.6,38.3,12.7,38.7z M27.8,29.8L26,31.6l-1-1v-2.2 l3.4-3.4h2.2l1,1l-1.8,1.8L27.8,29.8z M39,39.6l-9.1-9.1l0.6-0.6l9.1,9.1L39,39.6z M44.8,45.7l-4-2.4l-0.7-2.1l1.1-1.1l2.1,0.7 l2.4,4L44.8,45.7z"/><path d="M7.5,36C5,36,3,38,3,40.5S5,45,7.5,45s4.5-2,4.5-4.5S10,36,7.5,36z M7.5,43C6.1,43,5,41.9,5,40.5 S6.1,38,7.5,38s2.5,1.1,2.5,2.5S8.9,43,7.5,43z"/></g></svg>